<?xml version="1.0" encoding="UTF-8"?>
<svg width="120px" height="120px" viewBox="0 0 120 120" version="1.1" xmlns="http://www.w3.org/2000/svg" xmlns:xlink="http://www.w3.org/1999/xlink">
    <!-- Generator: Sketch 57.1 (83088) - https://sketch.com -->
    <title>Andromeda</title>
    <desc>Created with Sketch.</desc>
    <g id="Andromeda" stroke="none" stroke-width="1" fill="none" fill-rule="evenodd">
        <g id="Clipped" transform="translate(23.000000, 46.000000)" stroke="#FFFFFF">
            <g id="Group">
                <path d="M0.6992188,0.8007812 C8.1015625,0.8007812 14.1015625,6.8007812 14.1015625,14.2031249 C14.1015625,21.6015625 8.1015625,27.6015625 0.6992188,27.6015625" id="Path" stroke-width="9" transform="translate(7.400391, 14.201172) scale(-1, 1) rotate(-180.000000) translate(-7.400391, -14.201172) "></path>
                <path d="M30.5,14.1992187 C30.5,17.8984375 27.5,20.8984375 23.8007812,20.8984375 C20.1015625,20.8984375 17.1015625,17.8984375 17.1015625,14.1992187 C17.1015625,10.5 20.1015625,7.5 23.8007812,7.5 C27.5,7.5 30.5,10.5 30.5,14.1992187 Z" id="Path" stroke-width="6" transform="translate(23.800781, 14.199219) scale(-1, 1) rotate(-180.000000) translate(-23.800781, -14.199219) "></path>
                <path d="M43.8984375,14.1992187 C43.8984375,17.8984375 40.8984375,20.8984375 37.1992188,20.8984375 C33.5,20.8984375 30.5,17.8984375 30.5,14.1992187 C30.5,10.5 33.5,7.5 37.1992188,7.5 C40.8984375,7.5 43.8984375,10.5 43.8984375,14.1992187 Z" id="Path" stroke-width="6" transform="translate(37.199219, 14.199219) scale(-1, 1) rotate(-180.000000) translate(-37.199219, -14.199219) "></path>
                <path d="M57.3007812,14.1992187 C57.3007812,17.8984375 54.3007812,20.8984375 50.6015625,20.8984375 C46.8984375,20.8984375 43.8984375,17.8984375 43.8984375,14.1992187 C43.8984375,10.5 46.8984375,7.5 50.6015625,7.5 C54.3007812,7.5 57.3007812,10.5 57.3007812,14.1992187 Z" id="Path" stroke-width="6" transform="translate(50.599609, 14.199219) scale(-1, 1) rotate(-180.000000) translate(-50.599609, -14.199219) "></path>
                <path d="M73.6992188,27.6015625 C66.3007812,27.6015625 60.3007812,21.6015625 60.3007812,14.2031249 C60.3007812,6.8007812 66.3007812,0.8007812 73.6992188,0.8007812" id="Path" stroke-width="9" transform="translate(67.000000, 14.201172) scale(-1, 1) rotate(-180.000000) translate(-67.000000, -14.201172) "></path>
            </g>
        </g>
    </g>
</svg>