<?xml version="1.0" encoding="UTF-8"?>
<svg width="120px" height="120px" viewBox="0 0 120 120" version="1.1" xmlns="http://www.w3.org/2000/svg" xmlns:xlink="http://www.w3.org/1999/xlink">
    <!-- Generator: Sketch 57.1 (83088) - https://sketch.com -->
    <title>Antlia</title>
    <desc>Created with Sketch.</desc>
    <g id="Antlia" stroke="none" stroke-width="1" fill="none" fill-rule="evenodd">
        <g id="Clipped" transform="translate(43.000000, 26.000000)" stroke="#FFFFFF" stroke-width="9">
            <path d="M33.9492188,17.4492188 C33.9492188,26.6992188 26.4492188,34.1992188 17.1992188,34.1992188 C7.9492188,34.1992188 0.4492188,26.6992188 0.4492188,17.4492188 L0.4492188,0.6992188 L33.9492188,0.6992188 L33.9492188,17.4492188 Z" id="Path" transform="translate(17.199219, 17.449219) scale(-1, 1) rotate(-180.000000) translate(-17.199219, -17.449219) "></path>
        </g>
        <path d="M60.1992188,93.6992188 L60.1992188,60.1992188" id="Path" stroke="#FFFFFF" stroke-width="9" transform="translate(60.199219, 76.949219) scale(-1, 1) rotate(-180.000000) translate(-60.199219, -76.949219) "></path>
        <g id="Clipped" transform="translate(43.000000, 76.000000)" stroke="#FFFFFF" stroke-width="9">
            <path d="M33.9492188,0.9492188 C33.9492188,10.1992188 26.4492188,17.6992188 17.1992188,17.6992188 C7.9492188,17.6992188 0.4492188,10.1992188 0.4492188,0.9492188" id="Path" transform="translate(17.199219, 9.324219) scale(-1, 1) rotate(-180.000000) translate(-17.199219, -9.324219) "></path>
        </g>
    </g>
</svg>