<?xml version="1.0" encoding="UTF-8"?>
<svg width="120px" height="120px" viewBox="0 0 120 120" version="1.1" xmlns="http://www.w3.org/2000/svg" xmlns:xlink="http://www.w3.org/1999/xlink">
    <!-- Generator: Sketch 57.1 (83088) - https://sketch.com -->
    <title>Aquarius</title>
    <desc>Created with Sketch.</desc>
    <g id="Aquarius" stroke="none" stroke-width="1" fill="none" fill-rule="evenodd" stroke-linecap="square">
        <g id="Clipped" transform="translate(26.000000, 46.000000)" stroke="#FFFFFF" stroke-width="9">
            <g id="Group">
                <path d="M0.6992188,23.5742188 C2.921875,25.7929688 5.9335938,27.0429688 9.0742188,27.0429688 C12.2148438,27.0429688 15.2304688,25.7929688 17.4492188,23.5742188 C19.671875,21.3515626 22.6835938,20.1054688 25.8242188,20.1054688 C28.9648438,20.1054688 31.9804688,21.3515626 34.1992188,23.5742188 C36.421875,25.7929688 39.4335938,27.0429688 42.5742188,27.0429688 C45.7148438,27.0429688 48.7304688,25.7929688 50.9492188,23.5742188 C53.171875,21.3515626 56.1835938,20.1054688 59.3242188,20.1054688 C62.4648438,20.1054688 65.4804688,21.3515626 67.6992188,23.5742188" id="Path" transform="translate(34.199219, 23.574219) scale(-1, 1) rotate(-180.000000) translate(-34.199219, -23.574219) "></path>
                <path d="M0.6992188,3.8242188 C2.921875,6.0429688 5.9335938,7.2929688 9.0742188,7.2929688 C12.2148438,7.2929688 15.2304688,6.0429688 17.4492188,3.8242188 C19.671875,1.6015626 22.6835938,0.3554688 25.8242188,0.3554688 C28.9648438,0.3554688 31.9804688,1.6015626 34.1992188,3.8242188 C36.421875,6.0429688 39.4335938,7.2929688 42.5742188,7.2929688 C45.7148438,7.2929688 48.7304688,6.0429688 50.9492188,3.8242188 C53.171875,1.6015626 56.1835938,0.3554688 59.3242188,0.3554688 C62.4648438,0.3554688 65.4804688,1.6015626 67.6992188,3.8242188" id="Path" transform="translate(34.199219, 3.824219) scale(-1, 1) rotate(-180.000000) translate(-34.199219, -3.824219) "></path>
            </g>
        </g>
    </g>
</svg>