<?xml version="1.0" encoding="UTF-8"?>
<svg width="120px" height="120px" viewBox="0 0 120 120" version="1.1" xmlns="http://www.w3.org/2000/svg" xmlns:xlink="http://www.w3.org/1999/xlink">
    <!-- Generator: Sketch 57.1 (83088) - https://sketch.com -->
    <title>Ara</title>
    <desc>Created with Sketch.</desc>
    <g id="Ara" stroke="none" stroke-width="1" fill="none" fill-rule="evenodd">
        <g id="Clipped" transform="translate(26.000000, 22.000000)" stroke="#FFFFFF" stroke-width="9">
            <g id="Group">
                <path d="M0.6992188,65.6992188 C9.5859375,56.8125001 21.6367188,51.8203126 34.1992188,51.8203126 C46.765625,51.8203126 58.8164062,56.8125001 67.6992188,65.6992188 L67.6992188,32.1992188 L0.6992188,32.1992188 L0.6992188,65.6992188 Z" id="Path" transform="translate(34.199219, 48.949219) scale(-1, 1) rotate(-180.000000) translate(-34.199219, -48.949219) "></path>
                <path d="M36.1992188,0.6992188 C33.9804688,2.9179688 32.7304688,5.9335938 32.7304688,9.0742188 C32.7304688,12.2148438 33.9804688,15.2265626 36.1992188,17.4492188 C38.421875,19.6679688 39.6679688,22.6835938 39.6679688,25.8242188 C39.6679688,28.9648438 38.421875,31.9765626 36.1992188,34.1992188" id="Path" transform="translate(36.199219, 17.449219) scale(-1, 1) rotate(189.000000) translate(-36.199219, -17.449219) "></path>
            </g>
        </g>
    </g>
</svg>