<?xml version="1.0" encoding="UTF-8"?>
<svg width="120px" height="120px" viewBox="0 0 120 120" version="1.1" xmlns="http://www.w3.org/2000/svg" xmlns:xlink="http://www.w3.org/1999/xlink">
    <!-- Generator: Sketch 57.1 (83088) - https://sketch.com -->
    <title>Auriga</title>
    <desc>Created with Sketch.</desc>
    <g id="Auriga" stroke="none" stroke-width="1" fill="none" fill-rule="evenodd">
        <g id="Group" transform="translate(26.000000, 26.000000)" stroke="#FFFFFF" stroke-width="9">
            <path d="M0.6992188,67.6992188 L0.6992188,34.1992188" id="Path" transform="translate(0.699219, 50.949219) scale(-1, 1) rotate(-180.000000) translate(-0.699219, -50.949219) "></path>
            <path d="M67.6992188,67.6992188 L67.6992188,34.1992188" id="Path" transform="translate(67.699219, 50.949219) scale(-1, 1) rotate(-180.000000) translate(-67.699219, -50.949219) "></path>
            <path d="M0.6992188,50.9492188 L67.6992188,50.9492188" id="Path" transform="translate(34.199219, 50.949219) scale(-1, 1) rotate(-180.000000) translate(-34.199219, -50.949219) "></path>
            <g id="Clipped" transform="translate(17.000000, 0.000000)">
                <path d="M0.4492188,0.6992188 L0.4492188,34.1992188 C0.4492188,43.4492188 7.9492188,50.9492188 17.1992188,50.9492188 C26.4492188,50.9492188 33.9492188,43.4492188 33.9492188,34.1992188 L33.9492188,0.6992188" id="Path" transform="translate(17.199219, 25.824219) scale(-1, 1) rotate(-180.000000) translate(-17.199219, -25.824219) "></path>
            </g>
        </g>
    </g>
</svg>