<?xml version="1.0" encoding="UTF-8"?>
<svg width="632px" height="378px" viewBox="0 0 632 378" version="1.1" xmlns="http://www.w3.org/2000/svg" xmlns:xlink="http://www.w3.org/1999/xlink">
    <!-- Generator: Sketch 57.1 (83088) - https://sketch.com -->
    <title>BestCandidateforSupportingLife</title>
    <desc>Created with Sketch.</desc>
    <g id="Site-UI" stroke="none" stroke-width="1" fill="none" fill-rule="evenodd">
        <g id="Examples-5" transform="translate(-1125.000000, -608.000000)">
            <g id="BestCandidateforSupportingLife" transform="translate(1125.000000, 608.000000)">
                <g id="Group-2">
                    <rect id="Rectangle" fill="#0400FB" transform="translate(315.000000, 189.000000) scale(-1, 1) translate(-315.000000, -189.000000) " x="0" y="0" width="630" height="378"></rect>
                    <polygon id="Rectangle" fill-opacity="0.15" fill="#FFFFFF" points="630 336.679688 631.5 378 3 378"></polygon>
                    <polygon id="Rectangle" fill-opacity="0.15" fill="#000000" transform="translate(16.466797, 189.000000) scale(-1, 1) translate(-16.466797, -189.000000) " points="32.9335937 0 32.9335937 378 -3.7658765e-13 378"></polygon>
                </g>
                <g id="Clipped" transform="translate(250.320757, 136.000000)" stroke="#FFFFFF" stroke-width="16">
                    <g id="Group" transform="translate(0.679243, 0.000000)">
                        <g id="Clipped" transform="translate(19.175676, 1.750482)">
                            <polyline id="Path" transform="translate(45.671611, 39.751672) scale(-1, 1) rotate(-180.000000) translate(-45.671611, -39.751672) " points="0.245143581 0.246161554 45.6716112 79.2571826 91.0980785 0.246161554"></polyline>
                        </g>
                        <path d="M19.4208193,81.0076647 L110.273754,81.0076647" id="Path" transform="translate(64.847287, 81.007665) scale(-1, 1) rotate(-180.000000) translate(-64.847287, -81.007665) "></path>
                        <path d="M64.8472868,86.4300567 L64.5,1.77783344" id="Path" transform="translate(64.760125, 44.213350) scale(-1, 1) rotate(-180.000000) translate(-64.760125, -44.213350) "></path>
                        <g id="Clipped" transform="translate(0.000000, 73.520251)">
                            <path d="M0,31.5086789 C18.072936,11.1557483 40.9141791,0 64.5,0 C88.0933418,0 110.927064,11.1557483 129,31.5086789" id="Path" transform="translate(64.500000, 15.754339) scale(-1, 1) rotate(-180.000000) translate(-64.500000, -15.754339) "></path>
                        </g>
                    </g>
                </g>
                <g id="Group-5" transform="translate(541.000000, 25.000000)" fill="#FFFFFF">
                    <circle id="Oval" cx="15" cy="15" r="15"></circle>
                    <circle id="Oval" cx="51" cy="15" r="15"></circle>
                    <circle id="Oval" cx="15" cy="49" r="15"></circle>
                    <circle id="Oval" cx="51" cy="49" r="15"></circle>
                    <circle id="Oval" cx="51" cy="85" r="15"></circle>
                </g>
            </g>
        </g>
    </g>
</svg>