<?xml version="1.0" encoding="UTF-8"?>
<svg width="120px" height="120px" viewBox="0 0 120 120" version="1.1" xmlns="http://www.w3.org/2000/svg" xmlns:xlink="http://www.w3.org/1999/xlink">
    <!-- Generator: Sketch 57.1 (83088) - https://sketch.com -->
    <title>Cancer</title>
    <desc>Created with Sketch.</desc>
    <g id="Cancer" stroke="none" stroke-width="1" fill="none" fill-rule="evenodd">
        <g id="Clipped" transform="translate(26.000000, 26.000000)" stroke="#FFFFFF" stroke-width="9">
            <g id="Group">
                <path d="M67.6992188,0.6992188 C67.6992188,19.1992188 52.703125,34.1992188 34.1992188,34.1992188 C25.3164062,34.1992188 16.7929688,30.6679688 10.5117188,24.3867188" id="Path" transform="translate(39.105469, 17.449219) scale(-1, 1) rotate(-180.000000) translate(-39.105469, -17.449219) "></path>
                <path d="M67.6992188,34.1992187 C67.6992188,40.3671875 62.6992188,45.3671875 56.53125,45.3671875 C50.3671875,45.3671875 45.3671875,40.3671875 45.3671875,34.1992187 C45.3671875,28.03125 50.3671875,23.03125 56.53125,23.03125 C62.6992188,23.03125 67.6992188,28.03125 67.6992188,34.1992187 Z" id="Path" transform="translate(56.533203, 34.199219) scale(-1, 1) rotate(-180.000000) translate(-56.533203, -34.199219) "></path>
                <path d="M0.6992188,67.6992188 C0.6992188,49.1953126 15.6992188,34.1992188 34.1992188,34.1992188 C43.0859375,34.1992188 51.6054688,37.7265626 57.8867188,44.0117188" id="Path" transform="translate(29.292969, 50.949219) scale(-1, 1) rotate(-180.000000) translate(-29.292969, -50.949219) "></path>
                <path d="M0.6992188,34.1992187 C0.6992188,28.03125 5.6992188,23.03125 11.8671875,23.03125 C18.0351562,23.03125 23.03125,28.03125 23.03125,34.1992187 C23.03125,40.3671875 18.0351562,45.3671875 11.8671875,45.3671875 C5.6992188,45.3671875 0.6992188,40.3671875 0.6992188,34.1992187 Z" id="Path" transform="translate(11.865234, 34.199219) scale(-1, 1) rotate(-180.000000) translate(-11.865234, -34.199219) "></path>
            </g>
        </g>
    </g>
</svg>