<?xml version="1.0" encoding="UTF-8"?>
<svg width="120px" height="120px" viewBox="0 0 120 120" version="1.1" xmlns="http://www.w3.org/2000/svg" xmlns:xlink="http://www.w3.org/1999/xlink">
    <!-- Generator: Sketch 57.1 (83088) - https://sketch.com -->
    <title>Capricorn</title>
    <desc>Created with Sketch.</desc>
    <g id="Capricorn" stroke="none" stroke-width="1" fill="none" fill-rule="evenodd">
        <g id="Clipped" transform="translate(23.000000, 20.000000)" stroke="#FFFFFF" stroke-width="9">
            <path d="M0.6992188,45.3671876 L11.8671875,45.3671876 L23.03125,0.6992188 L34.1992188,45.3671876 L56.53125,45.3671876 C62.6992188,45.3671876 67.6992188,50.3632814 67.6992188,56.5312501 C67.6992188,58.4921876 67.1835938,60.4179688 66.203125,62.1171876 C64.2109375,65.5703126 60.5234375,67.6992188 56.53125,67.6992188 C50.3671875,67.6992188 45.3671875,62.6992188 45.3671875,56.5312501 C45.3671875,54.5703126 45.8828125,52.6445314 46.8632812,50.9492188 L66.203125,17.4492188 C67.1835938,15.7500001 67.6992188,13.8242188 67.6992188,11.8671876 C67.6992188,5.6992188 62.6992188,0.6992188 56.53125,0.6992188 C50.3671875,0.6992188 45.3671875,5.6992188 45.3671875,11.8671876" id="Path" transform="translate(34.199219, 34.199219) scale(-1, 1) rotate(-180.000000) translate(-34.199219, -34.199219) "></path>
        </g>
    </g>
</svg>