<?xml version="1.0" encoding="UTF-8"?>
<svg width="120px" height="120px" viewBox="0 0 120 120" version="1.1" xmlns="http://www.w3.org/2000/svg" xmlns:xlink="http://www.w3.org/1999/xlink">
    <!-- Generator: Sketch 57.1 (83088) - https://sketch.com -->
    <title>Centaurus</title>
    <desc>Created with Sketch.</desc>
    <g id="Centaurus" stroke="none" stroke-width="1" fill="none" fill-rule="evenodd">
        <g id="Group" transform="translate(24.000000, 25.000000)" stroke="#FFFFFF" stroke-width="9">
            <g id="Clipped" transform="translate(11.000000, 0.000000)">
                <path d="M21,10 C21,15.5223881 16.2985075,20 10.5,20 C4.70149254,20 0,15.5223881 0,10 C0,4.47761194 4.70149254,0 10.5,0 C16.2985075,0 21,4.47761194 21,10 Z" id="Path" transform="translate(10.500000, 10.000000) scale(-1, 1) rotate(-180.000000) translate(-10.500000, -10.000000) "></path>
            </g>
            <path d="M1.5,36.2992188 L39.5,36.2992188" id="Path" transform="translate(20.199219, 36.249219) scale(-1, 1) rotate(-180.000000) translate(-20.199219, -36.249219) "></path>
            <path d="M21.4492188,69.6992188 L21.4492188,19.4492188" id="Path" transform="translate(21.449219, 44.574219) scale(-1, 1) rotate(-180.000000) translate(-21.449219, -44.574219) "></path>
            <path d="M21.4492188,52.9492188 L71.6992188,52.9492188" id="Path" transform="translate(46.574219, 52.949219) scale(-1, 1) rotate(-180.000000) translate(-46.574219, -52.949219) "></path>
            <path d="M68,69.5 L68,36" id="Path" transform="translate(68.000000, 52.750000) scale(-1, 1) rotate(-180.000000) translate(-68.000000, -52.750000) "></path>
        </g>
    </g>
</svg>