<?xml version="1.0" encoding="UTF-8"?>
<svg width="120px" height="120px" viewBox="0 0 120 120" version="1.1" xmlns="http://www.w3.org/2000/svg" xmlns:xlink="http://www.w3.org/1999/xlink">
    <!-- Generator: Sketch 57.1 (83088) - https://sketch.com -->
    <title>Coma_Berenices</title>
    <desc>Created with Sketch.</desc>
    <g id="Coma_Berenices" stroke="none" stroke-width="1" fill="none" fill-rule="evenodd">
        <g id="Clipped" transform="translate(28.000000, 27.000000)" stroke="#FFFFFF" stroke-width="9">
            <g id="Group">
                <path d="M64,52.4117647 L48,52.4117647 C39.1641791,52.4117647 32,43.7199298 32,33 C32,22.2800702 24.8358209,13.5882353 16,13.5882353 C7.1641791,13.5882353 0,22.2800702 0,33" id="Path" transform="translate(32.000000, 33.000000) scale(-1, 1) rotate(-180.000000) translate(-32.000000, -33.000000) "></path>
                <path d="M50.1007463,65.7080653 L50.1007463,49.4507124 C50.1007463,40.4727712 41.9742148,33.1933594 31.9514926,33.1933594 C21.9287704,33.1933594 13.8022389,25.9139477 13.8022389,16.9360065 C13.8022389,7.95806531 21.9287704,0.678653541 31.9514926,0.678653541" id="Path" transform="translate(31.951493, 33.193359) scale(-1, 1) rotate(-180.000000) translate(-31.951493, -33.193359) "></path>
            </g>
        </g>
    </g>
</svg>