<?xml version="1.0" encoding="UTF-8"?>
<svg width="120px" height="120px" viewBox="0 0 120 120" version="1.1" xmlns="http://www.w3.org/2000/svg" xmlns:xlink="http://www.w3.org/1999/xlink">
    <!-- Generator: Sketch 57.1 (83088) - https://sketch.com -->
    <title>Eridanus</title>
    <desc>Created with Sketch.</desc>
    <g id="Eridanus" stroke="none" stroke-width="1" fill="none" fill-rule="evenodd">
        <g id="Clipped" transform="translate(37.000000, 26.000000)" stroke="#FFFFFF" stroke-width="9">
            <g id="Group">
                <path d="M4.4492188,0.6992188 C2.2304688,2.9179688 0.9804688,5.9335938 0.9804688,9.0742188 C0.9804688,12.2148438 2.2304688,15.2265626 4.4492188,17.4492188 C6.671875,19.6679688 7.9179688,22.6835938 7.9179688,25.8242188 C7.9179688,28.9648438 6.671875,31.9765626 4.4492188,34.1992188 C2.2304688,36.4179688 0.9804688,39.4335938 0.9804688,42.5742188 C0.9804688,45.7148438 2.2304688,48.7265626 4.4492188,50.9492188 C6.671875,53.1679688 7.9179688,56.1835938 7.9179688,59.3242188 C7.9179688,62.4648438 6.671875,65.4765626 4.4492188,67.6992188" id="Path" transform="translate(4.449219, 34.199219) scale(-1, 1) rotate(-180.000000) translate(-4.449219, -34.199219) "></path>
                <path d="M23.1992188,0.6992188 C20.9804688,2.9179688 19.7304688,5.9335938 19.7304688,9.0742188 C19.7304688,12.2148438 20.9804688,15.2265626 23.1992188,17.4492188 C25.421875,19.6679688 26.6679688,22.6835938 26.6679688,25.8242188 C26.6679688,28.9648438 25.421875,31.9765626 23.1992188,34.1992188 C20.9804688,36.4179688 19.7304688,39.4335938 19.7304688,42.5742188 C19.7304688,45.7148438 20.9804688,48.7265626 23.1992188,50.9492188 C25.421875,53.1679688 26.6679688,56.1835938 26.6679688,59.3242188 C26.6679688,62.4648438 25.421875,65.4765626 23.1992188,67.6992188" id="Path" transform="translate(23.199219, 34.199219) scale(-1, 1) rotate(-180.000000) translate(-23.199219, -34.199219) "></path>
                <path d="M41.9492188,0.6992188 C39.7304688,2.9179688 38.4804688,5.9335938 38.4804688,9.0742188 C38.4804688,12.2148438 39.7304688,15.2265626 41.9492188,17.4492188 C44.171875,19.6679688 45.4179688,22.6835938 45.4179688,25.8242188 C45.4179688,28.9648438 44.171875,31.9765626 41.9492188,34.1992188 C39.7304688,36.4179688 38.4804688,39.4335938 38.4804688,42.5742188 C38.4804688,45.7148438 39.7304688,48.7265626 41.9492188,50.9492188 C44.171875,53.1679688 45.4179688,56.1835938 45.4179688,59.3242188 C45.4179688,62.4648438 44.171875,65.4765626 41.9492188,67.6992188" id="Path" transform="translate(41.949219, 34.199219) scale(-1, 1) rotate(-180.000000) translate(-41.949219, -34.199219) "></path>
            </g>
        </g>
    </g>
</svg>