<?xml version="1.0" encoding="UTF-8"?>
<svg width="711px" height="137px" viewBox="0 0 711 137" version="1.1" xmlns="http://www.w3.org/2000/svg" xmlns:xlink="http://www.w3.org/1999/xlink">
    <!-- Generator: Sketch 55.2 (78181) - https://sketchapp.com -->
    <title>Group</title>
    <desc>Created with Sketch.</desc>
    <g id="Site-UI" stroke="none" stroke-width="1" fill="none" fill-rule="evenodd">
        <g id="Home" transform="translate(-126.000000, -137.000000)">
            <g id="Group" transform="translate(126.000000, 137.000000)">
                <path d="M24.1568321,82.7646421 L66.4312883,82.7646421 L66.4312883,105.647505 L0,105.647505 L0,1.63449024 L65.6763873,1.63449024 L65.6763873,24.5173536 L24.1568321,24.5173536 L24.1568321,41.7537961 L61.9018823,41.7537961 L61.9018823,64.3394794 L24.1568321,64.3394794 L24.1568321,82.7646421 Z M153.895371,105.647505 L127.926777,105.647505 L113.885618,86.0336226 L99.8444592,105.647505 L73.8758647,105.647505 L100.901321,67.9056399 L74.7817459,31.3524946 L100.75034,31.3524946 L113.885618,49.7776573 L127.020895,31.3524946 L152.98949,31.3524946 L126.869915,67.9056399 L153.895371,105.647505 Z M196.065394,107.727766 C173.871304,107.727766 156.055641,90.6399132 156.055641,68.5 C156.055641,46.3600868 173.871304,29.2722343 196.065394,29.2722343 C218.259483,29.2722343 236.075147,46.3600868 236.075147,68.5 C236.075147,90.6399132 218.259483,107.727766 196.065394,107.727766 Z M196.065394,86.0336226 C205.879107,86.0336226 213.428117,79.0498915 213.428117,68.5 C213.428117,57.9501085 205.879107,50.9663774 196.065394,50.9663774 C186.251681,50.9663774 178.702671,57.9501085 178.702671,68.5 C178.702671,79.0498915 186.251681,86.0336226 196.065394,86.0336226 Z M285.184667,0 C291.676815,0 297.112103,0.594360087 303.453271,1.63449024 L303.453271,105.647505 L295.753281,105.647505 L295.753281,7.42950108 C292.280736,6.98373102 288.808192,6.835141 285.184667,6.835141 C269.784686,6.835141 262.688617,12.9273319 262.688617,27.340564 L262.688617,31.3524946 L280.655261,31.3524946 L280.655261,38.6334056 L262.688617,38.6334056 L262.688617,105.647505 L254.988627,105.647505 L254.988627,38.6334056 L242.004329,38.6334056 L242.004329,31.3524946 L254.988627,31.3524946 L254.988627,27.340564 C254.988627,9.06399132 265.406261,0 285.184667,0 Z M386.952726,31.3524946 L394.652716,31.3524946 L394.652716,105.647505 L386.952726,105.647505 L386.952726,88.856833 C380.611557,100.001085 368.986082,107.281996 354.491983,107.281996 C333.052794,107.281996 315.388111,90.4913232 315.388111,68.5 C315.388111,46.5086768 333.052794,29.7180043 354.491983,29.7180043 C368.986082,29.7180043 380.611557,36.9989154 386.952726,48.143167 L386.952726,31.3524946 Z M355.095903,100.149675 C373.062547,100.149675 386.952726,86.1822126 386.952726,68.5 C386.952726,50.8177874 373.062547,36.8503254 355.095903,36.8503254 C337.129259,36.8503254 323.088101,50.8177874 323.088101,68.5 C323.088101,86.1822126 337.129259,100.149675 355.095903,100.149675 Z M478.907071,31.3524946 L486.456081,31.3524946 L486.456081,102.081345 C486.456081,124.369848 469.697279,137 448.862012,137 C431.197328,137 418.665971,130.016269 413.230684,119.169197 L419.873813,115.454447 C423.799298,123.329718 432.254189,129.867679 448.862012,129.867679 C467.734537,129.867679 478.907071,119.020607 478.907071,102.081345 L478.907071,88.4110629 C472.716883,99.8524946 461.091408,107.281996 446.446328,107.281996 C424.85616,107.281996 407.342456,90.4913232 407.342456,68.5 C407.342456,46.5086768 424.85616,29.7180043 446.446328,29.7180043 C461.091408,29.7180043 472.716883,37.1475054 478.907071,48.5889371 L478.907071,31.3524946 Z M446.899269,100.149675 C464.865913,100.149675 478.907071,86.1822126 478.907071,68.5 C478.907071,50.8177874 464.865913,36.8503254 446.899269,36.8503254 C428.932625,36.8503254 414.891466,50.8177874 414.891466,68.5 C414.891466,86.1822126 428.932625,100.149675 446.899269,100.149675 Z M508.808555,50.8177874 C508.808555,70.7288503 554.555556,58.9902386 554.555556,86.1822126 C554.555556,98.3665944 543.684981,107.281996 527.5301,107.281996 C512.43208,107.281996 502.467386,100.298265 498.843862,90.7885033 L505.33601,87.0737527 C508.053654,95.0976139 516.206585,100.149675 527.5301,100.149675 C538.098714,100.149675 547.006546,95.5433839 547.006546,86.1822126 C547.006546,65.9739696 501.259545,77.5639913 501.259545,50.8177874 C501.259545,39.0791757 511.526198,29.7180043 526.926179,29.7180043 C539.155575,29.7180043 548.516348,35.5130152 552.592813,44.5770065 L546.251645,48.143167 C543.08106,40.4164859 535.23009,36.8503254 526.926179,36.8503254 C517.112466,36.8503254 508.808555,41.9023861 508.808555,50.8177874 Z" id="Exofags" fill="#FFFFFF" fill-rule="nonzero"></path>
                <ellipse id="Oval" fill="#4B9AF1" cx="607.37037" cy="65.8653846" rx="42.2518519" ry="42.1538462"></ellipse>
                <polygon id="Rectangle" fill-opacity="0.426190997" fill="#EA5959" points="604.72963 2.63461538 710.359259 108.019231 604.72963 108.019231"></polygon>
                <path d="M571.72037,106.701923 L639.318549,39.2605421" id="Line-12" stroke="#FFFFFF" stroke-width="2.64" fill="#FFFFFF"></path>
                <path d="M587.564815,106.701923 L662.276937,32.1631003" id="Line-12" stroke="#FFFFFF" stroke-width="2.64" fill="#FFFFFF"></path>
                <path d="M603.409259,106.701923 L686.592593,23.7115385" id="Line-12" stroke="#FFFFFF" stroke-width="2.64" fill="#FFFFFF"></path>
            </g>
        </g>
    </g>
</svg>