<?xml version="1.0" encoding="UTF-8"?>
<svg width="120px" height="120px" viewBox="0 0 120 120" version="1.1" xmlns="http://www.w3.org/2000/svg" xmlns:xlink="http://www.w3.org/1999/xlink">
    <!-- Generator: Sketch 57.1 (83088) - https://sketch.com -->
    <title>Hydra</title>
    <desc>Created with Sketch.</desc>
    <g id="Hydra" stroke="none" stroke-width="1" fill="none" fill-rule="evenodd">
        <g id="Group" transform="translate(22.000000, 19.000000)" stroke="#FFFFFF" stroke-width="9">
            <g id="Clipped" transform="translate(26.000000, 0.000000)">
                <path d="M22,11 C22,17.0746269 17.0746269,22 11,22 C4.92537313,22 0,17.0746269 0,11 C0,4.92537313 4.92537313,0 11,0 C17.0746269,0 22,4.92537313 22,11 Z" id="Path" transform="translate(11.000000, 11.000000) scale(-1, 1) rotate(-180.000000) translate(-11.000000, -11.000000) "></path>
            </g>
            <g id="Clipped" transform="translate(31.000000, 11.000000)">
                <g id="Path">
                    <path d="M6.97412115,-4.54747351e-13 C2.6015625,4.56599489 0.145019475,10.7610632 0.145019475,17.2177011 C0.145019475,23.6743391 2.6982423,28.7554027 6.97412115,34.4354022 C11.25,40.1154017 20.25,54.8810267 16.875,69.6466517" transform="translate(8.880669, 34.823326) scale(-1, 1) rotate(-180.000000) translate(-8.880669, -34.823326) "></path>
                </g>
            </g>
            <g id="Clipped" transform="translate(0.000000, 32.000000)">
                <g id="Group">
                    <path d="M0.781479835,7.85369324 C5.74540441,12.6988637 12.4818475,15.4218751 19.5020681,15.4218751 C26.5222887,15.4218751 33.2587316,12.6988637 38.2226563,7.85369324 C43.1865809,3.00852284 49.923024,0.285511418 56.9432445,0.285511418 C63.9634651,0.285511418 70.6999081,3.00852284 75.6638328,7.85369324" id="Path" transform="translate(38.222656, 7.853693) scale(-1, 1) rotate(-180.000000) translate(-38.222656, -7.853693) "></path>
                    <path d="M0.781479835,28.3082387 C5.74540441,33.1534092 12.4818475,35.8764205 19.5020681,35.8764205 C26.5222887,35.8764205 33.2587316,33.1534092 38.2226563,28.3082387 C43.1865809,23.4630683 49.923024,20.7400569 56.9432445,20.7400569 C63.9634651,20.7400569 70.6999081,23.4630683 75.6638328,28.3082387" id="Path" transform="translate(38.222656, 28.308239) scale(-1, 1) rotate(-180.000000) translate(-38.222656, -28.308239) "></path>
                </g>
            </g>
        </g>
    </g>
</svg>