<?xml version="1.0" encoding="UTF-8"?>
<svg width="120px" height="120px" viewBox="0 0 120 120" version="1.1" xmlns="http://www.w3.org/2000/svg" xmlns:xlink="http://www.w3.org/1999/xlink">
    <!-- Generator: Sketch 57.1 (83088) - https://sketch.com -->
    <title>Hydrus</title>
    <desc>Created with Sketch.</desc>
    <g id="Hydrus" stroke="none" stroke-width="1" fill="none" fill-rule="evenodd">
        <g id="Group" transform="translate(60.000000, 59.500000) scale(-1, -1) translate(-60.000000, -59.500000) translate(22.000000, 18.000000)" stroke="#FFFFFF" stroke-width="9">
            <g id="Clipped" transform="translate(25.000000, 0.000000)">
                <path d="M22.6992188,11.6769387 C22.6992188,17.7515656 17.7738457,22.6769387 11.6992188,22.6769387 C5.62459193,22.6769387 0.6992188,17.7515656 0.6992188,11.6769387 C0.6992188,5.60231185 5.62459193,0.676938711 11.6992188,0.676938711 C17.7738457,0.676938711 22.6992188,5.60231185 22.6992188,11.6769387 Z" id="Path" transform="translate(11.699219, 11.676939) scale(-1, 1) rotate(-180.000000) translate(-11.699219, -11.676939) "></path>
            </g>
            <g id="Clipped" transform="translate(31.000000, 11.000000)">
                <g id="Path">
                    <path d="M7.34410152,0.676938711 C3.08949516,5.33165834 0.6992188,11.647107 0.6992188,18.2292079 C0.6992188,24.8113089 3.18356697,29.9911059 7.34410152,35.7814771 C11.5046361,41.5718483 20.2618559,56.6243935 16.9778985,71.6769387" transform="translate(9.199219, 36.176939) scale(-1, 1) rotate(-180.000000) translate(-9.199219, -36.176939) "></path>
                </g>
            </g>
            <g id="Clipped" transform="translate(0.000000, 33.000000)">
                <g id="Group">
                    <path d="M0.6992188,8.17693871 C5.67094216,12.978459 12.4179688,15.6769387 19.4492188,15.6769387 C26.4804688,15.6769387 33.2274953,12.978459 38.1992188,8.17693871 C43.1709422,3.37541849 49.9179688,0.676938711 56.9492188,0.676938711 C63.9804688,0.676938711 70.7274953,3.37541849 75.6992188,8.17693871" id="Path" transform="translate(38.199219, 8.176939) scale(-1, 1) rotate(-180.000000) translate(-38.199219, -8.176939) "></path>
                    <path d="M0.6992188,28.6769387 C5.67094216,33.7985604 12.4179688,36.6769387 19.4492188,36.6769387 C26.4804688,36.6769387 33.2274953,33.7985604 38.1992188,28.6769387 C43.1709422,23.5553171 49.9179688,20.6769387 56.9492188,20.6769387 C63.9804688,20.6769387 70.7274953,23.5553171 75.6992188,28.6769387" id="Path" transform="translate(38.199219, 28.676939) scale(-1, 1) rotate(-180.000000) translate(-38.199219, -28.676939) "></path>
                </g>
            </g>
        </g>
    </g>
</svg>