<?xml version="1.0" encoding="UTF-8"?>
<svg width="120px" height="120px" viewBox="0 0 120 120" version="1.1" xmlns="http://www.w3.org/2000/svg" xmlns:xlink="http://www.w3.org/1999/xlink">
    <!-- Generator: Sketch 57.1 (83088) - https://sketch.com -->
    <title>Lacerta</title>
    <desc>Created with Sketch.</desc>
    <g id="Lacerta" stroke="none" stroke-width="1" fill="none" fill-rule="evenodd">
        <g id="Clipped" transform="translate(41.000000, 21.000000)" stroke="#FFFFFF" stroke-width="9">
            <g id="Group">
                <path d="M19.4492188,76.6992188 C16.2482052,73.3405435 14.4492188,68.7810752 14.4492188,64.0310752 C14.4492188,59.2810752 16.2482052,54.7260379 19.4492188,51.3673625 C22.6502322,48.0042561 24.4492188,43.4492188 24.4492188,38.6992188 C24.4492188,33.9492188 22.6502322,29.3897506 19.4492188,26.0310752 C16.2482052,22.6723998 14.4492188,18.1173625 14.4492188,13.3673625 C14.4492188,8.6129316 16.2482052,4.05789429 19.4492188,0.6992188" id="Path" transform="translate(19.449219, 38.699219) scale(-1, 1) rotate(-180.000000) translate(-19.449219, -38.699219) "></path>
                <path d="M0.4492188,51.6992188 C2.97044076,54.2622819 6.3867188,55.6992188 9.9492188,55.6992188 C13.5117188,55.6992188 16.9324278,54.2622819 19.4492188,51.6992188 C21.9704408,49.1406602 25.3867188,47.6992188 28.9492188,47.6992188 C32.5117188,47.6992188 35.9324278,49.1406602 38.4492188,51.6992188" id="Path" transform="translate(19.449219, 51.699219) scale(-1, 1) rotate(-180.000000) translate(-19.449219, -51.699219) "></path>
                <path d="M0.4492188,25.7037232 C2.97044076,23.1406602 6.3867188,21.6992188 9.9492188,21.6992188 C13.5117188,21.6992188 16.9324278,23.1406602 19.4492188,25.7037232 C21.9704408,28.2622818 25.3867188,29.6992188 28.9492188,29.6992188 C32.5117188,29.6992188 35.9324278,28.2622818 38.4492188,25.7037232" id="Path" transform="translate(19.449219, 25.699219) scale(-1, 1) rotate(-180.000000) translate(-19.449219, -25.699219) "></path>
            </g>
        </g>
    </g>
</svg>