<?xml version="1.0" encoding="UTF-8"?>
<svg width="120px" height="120px" viewBox="0 0 120 120" version="1.1" xmlns="http://www.w3.org/2000/svg" xmlns:xlink="http://www.w3.org/1999/xlink">
    <!-- Generator: Sketch 57.1 (83088) - https://sketch.com -->
    <title>Musca</title>
    <desc>Created with Sketch.</desc>
    <g id="Musca" stroke="none" stroke-width="1" fill="none" fill-rule="evenodd">
        <g id="Group-4" transform="translate(26.000000, 27.000000)" stroke="#FFFFFF" stroke-width="9">
            <g id="Group">
                <g id="Clipped" transform="translate(23.000000, 45.000000)">
                    <path d="M20.8242188,10.7617188 C20.8242188,16.2841069 16.3466069,20.7617188 10.8242188,20.7617188 C5.30183074,20.7617188 0.8242188,16.2841069 0.8242188,10.7617188 C0.8242188,5.23933074 5.30183074,0.7617188 10.8242188,0.7617188 C16.3466069,0.7617188 20.8242188,5.23933074 20.8242188,10.7617188 Z" id="Path" transform="translate(10.824219, 10.761719) scale(-1, 1) rotate(-180.000000) translate(-10.824219, -10.761719) "></path>
                </g>
                <g id="Clipped">
                    <g id="Group">
                        <g>
                            <path d="M34.1992188,27.25 C34.1992188,36.5 26.6992188,44 17.4492188,44 C14.8476562,44 12.2851562,43.3945313 9.9609375,42.2304688 C4.2851562,39.3945313 0.6992188,33.59375 0.6992188,27.25 C0.6992188,21.9765626 3.1835938,17.0117188 7.3984375,13.8476563 L34,0.8867188 L34.1992188,27.25 Z" id="Path" transform="translate(17.449219, 22.443359) scale(-1, 1) rotate(-180.000000) translate(-17.449219, -22.443359) "></path>
                        </g>
                    </g>
                </g>
            </g>
            <g id="Group" transform="translate(50.500000, 22.000000) scale(-1, 1) translate(-50.500000, -22.000000) translate(33.000000, 0.000000)">
                <g id="Clipped">
                    <g id="Group">
                        <g>
                            <path d="M34.1992188,27.25 C34.1992188,36.5 26.6992188,44 17.4492188,44 C14.8476562,44 12.2851562,43.3945313 9.9609375,42.2304688 C4.2851562,39.3945313 0.6992188,33.59375 0.6992188,27.25 C0.6992188,21.9765626 3.1835938,17.0117188 7.3984375,13.8476563 L34,0.8867188 L34.1992188,27.25 Z" id="Path" transform="translate(17.449219, 22.443359) scale(-1, 1) rotate(-180.000000) translate(-17.449219, -22.443359) "></path>
                        </g>
                    </g>
                </g>
            </g>
        </g>
    </g>
</svg>