<?xml version="1.0" encoding="UTF-8"?>
<svg width="120px" height="120px" viewBox="0 0 120 120" version="1.1" xmlns="http://www.w3.org/2000/svg" xmlns:xlink="http://www.w3.org/1999/xlink">
    <!-- Generator: Sketch 57.1 (83088) - https://sketch.com -->
    <title>Octans</title>
    <desc>Created with Sketch.</desc>
    <g id="Octans" stroke="none" stroke-width="1" fill="none" fill-rule="evenodd">
        <g id="Group" transform="translate(24.000000, 26.000000)" stroke="#FFFFFF" stroke-width="9">
            <g id="Clipped">
                <g id="Group">
                    <path d="M0.1992188,67.6992188 C10.9570312,60.8476562 23.4453125,57.2070312 36.1992188,57.2070312 C48.953125,57.2070312 61.4414062,60.8476562 72.1992188,67.6992188" id="Path" transform="translate(36.199219, 62.453125) scale(-1, 1) rotate(-180.000000) translate(-36.199219, -62.453125) "></path>
                    <polyline id="Path" transform="translate(36.199219, 31.650391) scale(-1, 1) rotate(-180.000000) translate(-36.199219, -31.650391) " points="10.5585938 0.6992188 36.1992188 62.6015625 61.8398438 0.6992188"></polyline>
                </g>
            </g>
            <path d="M23.3789062,31.6484375 L49.0195312,31.6484375" id="Path" transform="translate(36.199219, 31.648437) scale(-1, 1) rotate(-180.000000) translate(-36.199219, -31.648437) "></path>
            <path d="M36.1992188,67.6992188 L36.1992188,31.6484375" id="Path" transform="translate(36.199219, 49.673828) scale(-1, 1) rotate(-180.000000) translate(-36.199219, -49.673828) "></path>
        </g>
    </g>
</svg>