<?xml version="1.0" encoding="UTF-8"?>
<svg width="120px" height="120px" viewBox="0 0 120 120" version="1.1" xmlns="http://www.w3.org/2000/svg" xmlns:xlink="http://www.w3.org/1999/xlink">
    <!-- Generator: Sketch 57.1 (83088) - https://sketch.com -->
    <title>Orion</title>
    <desc>Created with Sketch.</desc>
    <g id="Orion" stroke="none" stroke-width="1" fill="none" fill-rule="evenodd">
        <g id="Group" transform="translate(23.000000, 51.000000)" stroke="#FFFFFF" stroke-width="9">
            <g id="Clipped">
                <path d="M17.4492188,9.1992188 C17.4492188,13.8242188 13.6992188,17.5742188 9.0742188,17.5742188 C4.4492188,17.5742188 0.6992188,13.8242188 0.6992188,9.1992188 C0.6992188,4.5742188 4.4492188,0.8242188 9.0742188,0.8242188 C13.6992188,0.8242188 17.4492188,4.5742188 17.4492188,9.1992188 Z" id="Path" transform="translate(9.074219, 9.199219) scale(-1, 1) rotate(-180.000000) translate(-9.074219, -9.199219) "></path>
            </g>
            <path d="M20.4492188,9.1992188 L28.8242188,9.1992188" id="Path" transform="translate(24.636719, 9.199219) scale(-1, 1) rotate(-180.000000) translate(-24.636719, -9.199219) "></path>
            <g id="Clipped" transform="translate(28.000000, 0.000000)">
                <path d="M17.5742188,9.1992188 C17.5742188,13.8242188 13.8242188,17.5742188 9.1992188,17.5742188 C4.5742188,17.5742188 0.8242188,13.8242188 0.8242188,9.1992188 C0.8242188,4.5742188 4.5742188,0.8242188 9.1992188,0.8242188 C13.8242188,0.8242188 17.5742188,4.5742188 17.5742188,9.1992188 Z" id="Path" transform="translate(9.199219, 9.199219) scale(-1, 1) rotate(-180.000000) translate(-9.199219, -9.199219) "></path>
            </g>
            <path d="M53.9492188,9.1992188 L45.5742188,9.1992188" id="Path" transform="translate(49.761719, 9.199219) scale(-1, 1) rotate(-180.000000) translate(-49.761719, -9.199219) "></path>
            <g id="Clipped" transform="translate(56.000000, 0.000000)">
                <path d="M17.6992188,9.1992188 C17.6992188,13.8242188 13.9492188,17.5742188 9.3242188,17.5742188 C4.6992188,17.5742188 0.9492188,13.8242188 0.9492188,9.1992188 C0.9492188,4.5742188 4.6992188,0.8242188 9.3242188,0.8242188 C13.9492188,0.8242188 17.6992188,4.5742188 17.6992188,9.1992188 Z" id="Path" transform="translate(9.324219, 9.199219) scale(-1, 1) rotate(-180.000000) translate(-9.324219, -9.199219) "></path>
            </g>
        </g>
    </g>
</svg>