<?xml version="1.0" encoding="UTF-8"?>
<svg width="120px" height="120px" viewBox="0 0 120 120" version="1.1" xmlns="http://www.w3.org/2000/svg" xmlns:xlink="http://www.w3.org/1999/xlink">
    <!-- Generator: Sketch 57.1 (83088) - https://sketch.com -->
    <title>Pavo</title>
    <desc>Created with Sketch.</desc>
    <g id="Pavo" stroke="none" stroke-width="1" fill="none" fill-rule="evenodd">
        <g id="Clipped" transform="translate(24.000000, 23.000000)" stroke="#FFFFFF" stroke-width="9">
            <g id="Group">
                <path d="M13.5,0 L27,13.4353562 C23.4235075,16.994723 18.5625,19 13.5,19 C8.4375,19 3.5827891,16.994723 0,13.4353562 L13.5,0 Z" id="Path" transform="translate(13.500000, 9.500000) scale(-1, 1) rotate(-180.000000) translate(-13.500000, -9.500000) "></path>
                <path d="M5.6992188,48.5742188 C5.6992188,53.1992188 9.4492188,56.9492188 14.0742188,56.9492188 C18.6992188,56.9492188 22.4492188,53.1992188 22.4492188,48.5742188 C22.4492188,31.8242188 5.6992188,31.8242188 5.6992188,19.2617188 C5.6992188,12.3242188 11.3242188,6.6992188 18.2617188,6.6992188 C25.1992188,6.6992188 30.8242188,12.3242188 30.8242188,19.2617188 L30.8242188,73.6992188 C53.953125,73.6992188 72.6992188,54.9492188 72.6992188,31.8242188 C72.6992188,24.4726564 70.765625,17.2500001 67.0898438,10.8867188 L30.8242188,23.4492188" id="Path" transform="translate(39.199219, 40.199219) scale(-1, 1) rotate(-180.000000) translate(-39.199219, -40.199219) "></path>
            </g>
        </g>
    </g>
</svg>