<?xml version="1.0" encoding="UTF-8"?>
<svg width="120px" height="120px" viewBox="0 0 120 120" version="1.1" xmlns="http://www.w3.org/2000/svg" xmlns:xlink="http://www.w3.org/1999/xlink">
    <!-- Generator: Sketch 57.1 (83088) - https://sketch.com -->
    <title>Pegasus</title>
    <desc>Created with Sketch.</desc>
    <g id="Pegasus" stroke="none" stroke-width="1" fill="none" fill-rule="evenodd">
        <g id="Group" transform="translate(26.000000, 26.000000)" stroke="#FFFFFF" stroke-width="9">
            <polyline id="Path" transform="translate(9.074219, 42.574219) scale(-1, 1) rotate(-180.000000) translate(-9.074219, -42.574219) " points="0.6992188 67.6992188 17.4492188 67.6992188 17.4492188 17.4492188"></polyline>
            <path d="M17.4492188,50.9492188 L67.6992188,50.9492188" id="Path" transform="translate(42.574219, 50.949219) scale(-1, 1) rotate(-180.000000) translate(-42.574219, -50.949219) "></path>
            <path d="M67.6992188,67.6992188 L67.6992188,34.1992188" id="Path" transform="translate(67.699219, 50.949219) scale(-1, 1) rotate(-180.000000) translate(-67.699219, -50.949219) "></path>
            <g id="Clipped" transform="translate(34.000000, 0.000000)">
                <path d="M0.1992188,0.6992188 L0.1992188,17.4492188 C0.1992188,35.9492188 15.1992188,50.9492188 33.6992188,50.9492188" id="Path" transform="translate(16.949219, 25.824219) scale(-1, 1) rotate(-180.000000) translate(-16.949219, -25.824219) "></path>
            </g>
            <g id="Clipped" transform="translate(48.000000, 13.000000)">
                <path d="M0,-1.77635684e-15 C0,9.5721393 8.95522388,17.3333333 20,17.3333333" id="Path" transform="translate(10.000000, 8.666667) scale(-1, 1) rotate(-180.000000) translate(-10.000000, -8.666667) "></path>
            </g>
        </g>
    </g>
</svg>