<?xml version="1.0" encoding="UTF-8"?>
<svg width="120px" height="120px" viewBox="0 0 120 120" version="1.1" xmlns="http://www.w3.org/2000/svg" xmlns:xlink="http://www.w3.org/1999/xlink">
    <!-- Generator: Sketch 57.1 (83088) - https://sketch.com -->
    <title>Perseus</title>
    <desc>Created with Sketch.</desc>
    <g id="Perseus" stroke="none" stroke-width="1" fill="none" fill-rule="evenodd">
        <g id="Group" transform="translate(21.000000, 35.000000)" stroke="#FFFFFF" stroke-width="9">
            <path d="M22.4492188,0.0742188 L55.9492188,0.0742188" id="Path" transform="translate(39.199219, 0.074219) scale(-1, 1) rotate(-180.000000) translate(-39.199219, -0.074219) "></path>
            <path d="M39.1992188,0.0742188 L39.1992188,16.8242188" id="Path" transform="translate(39.199219, 8.449219) scale(-1, 1) rotate(-180.000000) translate(-39.199219, -8.449219) "></path>
            <g id="Clipped" transform="translate(0.000000, 3.000000)">
                <g transform="translate(44.000000, 0.000000)" id="Group">
                    <g>
                        <path d="M13.9492188,13.8242188 C23.1992188,13.8242188 30.6992188,21.3242188 30.6992188,30.5742188" id="Path" transform="translate(22.324219, 22.199219) scale(-1, 1) rotate(-180.000000) translate(-22.324219, -22.199219) "></path>
                        <path d="M-1.8189894e-12,-1.77635684e-15 C9.25,-1.77635684e-15 13.9492188,5.4257812 13.9492188,14.6757812 C13.9492188,23.9257812 25.25,30.5 34.5,30.5" id="Path" transform="translate(17.250000, 15.250000) scale(-1, 1) rotate(-180.000000) translate(-17.250000, -15.250000) "></path>
                    </g>
                </g>
                <g transform="translate(17.500000, 15.500000) scale(-1, 1) translate(-17.500000, -15.500000) " id="Group">
                    <g>
                        <path d="M13.9492188,13.8242188 C23.1992188,13.8242188 30.6992188,21.3242188 30.6992188,30.5742188" id="Path" transform="translate(22.324219, 22.199219) scale(-1, 1) rotate(-180.000000) translate(-22.324219, -22.199219) "></path>
                        <path d="M-1.8189894e-12,-1.77635684e-15 C9.25,-1.77635684e-15 13.9492188,5.4257812 13.9492188,14.6757812 C13.9492188,23.9257812 25.25,30.5 34.5,30.5" id="Path" transform="translate(17.250000, 15.250000) scale(-1, 1) rotate(-180.000000) translate(-17.250000, -15.250000) "></path>
                    </g>
                </g>
            </g>
            <g id="Clipped" transform="translate(22.000000, 16.000000)">
                <path d="M33.9492188,17.5742188 C33.9492188,26.8242188 26.4492188,34.3242188 17.1992188,34.3242188 C7.9492188,34.3242188 0.4492188,26.8242188 0.4492188,17.5742188 C0.4492188,8.3242188 7.9492188,0.8242188 17.1992188,0.8242188 C26.4492188,0.8242188 33.9492188,8.3242188 33.9492188,17.5742188 Z" id="Path" transform="translate(17.199219, 17.574219) scale(-1, 1) rotate(-180.000000) translate(-17.199219, -17.574219) "></path>
            </g>
        </g>
    </g>
</svg>