<?xml version="1.0" encoding="UTF-8"?>
<svg width="120px" height="120px" viewBox="0 0 120 120" version="1.1" xmlns="http://www.w3.org/2000/svg" xmlns:xlink="http://www.w3.org/1999/xlink">
    <!-- Generator: Sketch 57.1 (83088) - https://sketch.com -->
    <title>Phoenix</title>
    <desc>Created with Sketch.</desc>
    <g id="Phoenix" stroke="none" stroke-width="1" fill="none" fill-rule="evenodd">
        <g id="Clipped" transform="translate(25.000000, 36.000000)" stroke="#FFFFFF" stroke-width="9.45">
            <g id="Group">
                <path d="M3.85426236,48.1084906 C1.80681301,44.521816 0.730066688,40.4522406 0.730066688,36.3125 C0.730066688,23.2783019 11.1712432,12.7122642 24.0473346,12.7122642 C30.4874196,12.7122642 35.7080079,7.42924528 35.7080079,0.916273585" id="Path" transform="translate(18.219037, 24.512382) scale(-1, 1) rotate(-180.000000) translate(-18.219037, -24.512382) "></path>
                <path d="M67.5617532,48.1084906 C69.6092027,44.521816 70.685949,40.4522406 70.685949,36.3125 C70.685949,23.2783019 60.2447726,12.7122642 47.3686811,12.7122642 C40.9285961,12.7122642 35.7080079,7.42924528 35.7080079,0.916273585" id="Path" transform="translate(53.196978, 24.512382) scale(-1, 1) rotate(-180.000000) translate(-53.196978, -24.512382) "></path>
                <path d="M24.0473346,43.7087264 C24.0473346,50.2216981 29.2679228,55.504717 35.7080079,55.504717 C37.237477,55.504717 38.7547105,55.1992925 40.1699793,54.6049528 C44.5259076,52.7806604 47.3686811,48.4799528 47.3686811,43.7087264 C47.3686811,40.5760613 46.1410271,37.5754717 43.9549057,35.3632075 C35.7080079,27.021816 35.7080079,12.7122642 35.7080079,0.916273585" id="Path" transform="translate(35.708008, 28.210495) scale(-1, 1) rotate(-180.000000) translate(-35.708008, -28.210495) "></path>
            </g>
        </g>
    </g>
</svg>