<?xml version="1.0" encoding="UTF-8"?>
<svg width="120px" height="120px" viewBox="0 0 120 120" version="1.1" xmlns="http://www.w3.org/2000/svg" xmlns:xlink="http://www.w3.org/1999/xlink">
    <!-- Generator: Sketch 57.1 (83088) - https://sketch.com -->
    <title>Scorpio</title>
    <desc>Created with Sketch.</desc>
    <g id="Scorpio" stroke="none" stroke-width="1" fill="none" fill-rule="evenodd">
        <g id="Group" transform="translate(16.000000, 36.000000)" stroke="#FFFFFF" stroke-width="9.45">
            <g id="Clipped">
                <g id="Group">
                    <path d="M3.44419762,30.5631168 C1.72850058,32.2987255 0.763954658,34.6517271 0.763954658,37.1083471 C0.763954658,39.5606497 1.72850058,41.9179689 3.44419762,43.6535774 C5.15989445,45.389186 7.49016949,46.364926 9.91433829,46.364926 C14.9675352,46.364926 19.0647219,42.2201892 19.0647219,37.1083471 L19.0647219,0.0820313053" id="Path" transform="translate(9.914338, 23.223479) scale(-1, 1) rotate(-180.000000) translate(-9.914338, -23.223479) "></path>
                    <path d="M19.0647219,37.1083471 C19.0647219,42.2201892 23.1619086,46.364926 28.2151056,46.364926 C33.2683025,46.364926 37.3654892,42.2201892 37.3654892,37.1083471 L37.3654892,0.0820313053" id="Path" transform="translate(28.215106, 23.223479) scale(-1, 1) rotate(-180.000000) translate(-28.215106, -23.223479) "></path>
                    <path d="M37.3654892,51.6609787 C37.3654892,57.3577579 41.5238279,61.9767681 46.6524457,61.9767681 C51.7810635,61.9767681 55.9394022,57.3577579 55.9394022,51.6609787 L55.9394022,10.3978208 C55.9394022,4.70104152 60.097741,0.0820313053 65.2263588,0.0820313053 C67.6910407,0.0820313053 70.0517642,1.16942342 71.7930687,3.10363382 C73.5343729,5.03784447 74.5133153,7.660095 74.5133153,10.3978208 C74.5133153,13.1307352 73.5343729,15.7577973 71.7930687,17.6920077 L68.080885,21.8154367" id="Path" transform="translate(55.939402, 31.029400) scale(-1, 1) rotate(-180.000000) translate(-55.939402, -31.029400) "></path>
                </g>
            </g>
            <polyline id="Path" transform="translate(79.052941, 39.375000) scale(-1, 1) rotate(-180.000000) translate(-79.052941, -39.375000) " points="69.1058824 34.65 69.1058824 44.1 89 44.1"></polyline>
        </g>
    </g>
</svg>