<?xml version="1.0" encoding="UTF-8"?>
<svg width="120px" height="120px" viewBox="0 0 120 120" version="1.1" xmlns="http://www.w3.org/2000/svg" xmlns:xlink="http://www.w3.org/1999/xlink">
    <!-- Generator: Sketch 57.1 (83088) - https://sketch.com -->
    <title>Serpens</title>
    <desc>Created with Sketch.</desc>
    <g id="Serpens" stroke="none" stroke-width="1" fill="none" fill-rule="evenodd">
        <g id="Group" transform="translate(26.000000, 40.000000)" stroke="#FFFFFF" stroke-width="9">
            <g id="Clipped" transform="translate(50.000000, 0.000000)">
                <path d="M13.5117188,16.0392021 C9.5078125,18.3517021 4.3828125,16.9806083 2.0703125,12.9727958 C-0.2421875,8.96888945 1.1328125,3.84779575 5.1367188,1.53529575 C9.1445312,-0.777204247 14.265625,0.593889453 16.578125,4.59779575 C18.890625,8.60560825 17.5195312,13.7267021 13.5117188,16.0392021 Z" id="Path" transform="translate(9.324645, 8.787179) scale(-1, 1) rotate(-180.000000) translate(-9.324645, -8.787179) "></path>
            </g>
            <g id="Clipped" transform="translate(0.000000, 6.000000)">
                <g id="Path">
                    <path d="M9.0742188,2.7851564 C3.8945312,5.7773438 0.6992188,11.3085938 0.6992188,17.2929688 C0.6992188,23.2773438 3.8945312,28.8046876 9.0742188,31.7968751 C11.6210938,33.2695314 14.5117188,34.0429688 17.4492188,34.0429688 C26.6992188,34.0429688 34.1992188,26.5429688 34.1992188,17.2929688 C34.1992188,8.0429688 41.6992188,0.5429688 50.9492188,0.5429688 C53.890625,0.5429688 56.8335052,1.29322518 59.3242188,2.7851564 C64,5.5859376 67.8007812,10.8789064 67.5,17.0859376 C67.3774604,19.6147091 66.2107938,22.7813758 64,26.5859376" transform="translate(34.107962, 17.292969) scale(-1, 1) rotate(-180.000000) translate(-34.107962, -17.292969) "></path>
                </g>
            </g>
        </g>
    </g>
</svg>