<?xml version="1.0" encoding="UTF-8"?>
<svg width="120px" height="120px" viewBox="0 0 120 120" version="1.1" xmlns="http://www.w3.org/2000/svg" xmlns:xlink="http://www.w3.org/1999/xlink">
    <!-- Generator: Sketch 57.1 (83088) - https://sketch.com -->
    <title>Sextans</title>
    <desc>Created with Sketch.</desc>
    <g id="Sextans" stroke="none" stroke-width="1" fill="none" fill-rule="evenodd">
        <g id="Group" transform="translate(23.000000, 30.000000)" stroke="#FFFFFF" stroke-width="9">
            <g id="Clipped" transform="translate(11.000000, 1.000000)">
                <polyline id="Path" transform="translate(26.199219, 22.708984) scale(-1, 1) rotate(-180.000000) translate(-26.199219, -22.708984) " points="0.140625 0.140625 26.1992188 45.2773438 52.2578125 0.140625"></polyline>
            </g>
            <path d="M11.140625,46.2773438 L63.2578125,46.2773438" id="Path" transform="translate(37.199219, 46.277344) scale(-1, 1) rotate(-180.000000) translate(-37.199219, -46.277344) "></path>
            <path d="M37.1992188,49.375 L37,1.015625" id="Path" transform="translate(37.149219, 25.257812) scale(-1, 1) rotate(-180.000000) translate(-37.149219, -25.257812) "></path>
            <g id="Clipped" transform="translate(0.000000, 42.000000)">
                <path d="M0,18 C10.3674207,6.37295743 23.4701493,0 37,0 C50.5341651,0 63.6325792,6.37295743 74,18" id="Path" transform="translate(37.000000, 9.000000) scale(-1, 1) rotate(-180.000000) translate(-37.000000, -9.000000) "></path>
            </g>
        </g>
    </g>
</svg>