<?xml version="1.0" encoding="UTF-8"?>
<svg width="120px" height="120px" viewBox="0 0 120 120" version="1.1" xmlns="http://www.w3.org/2000/svg" xmlns:xlink="http://www.w3.org/1999/xlink">
    <!-- Generator: Sketch 57.1 (83088) - https://sketch.com -->
    <title>Virgo</title>
    <desc>Created with Sketch.</desc>
    <g id="Virgo" stroke="none" stroke-width="1" fill="none" fill-rule="evenodd">
        <g id="Clipped" transform="translate(17.000000, 40.000000)" stroke="#FFFFFF" stroke-width="9.45">
            <g id="Group">
                <path d="M3.50868103,31.3309808 C1.73351858,33.1105264 0.735541855,35.5230942 0.735541855,38.0419035 C0.735541855,40.5562861 1.73351858,42.9732808 3.50868103,44.7528261 C5.28384325,46.5323717 7.69488475,47.5328126 10.2030743,47.5328126 C15.4314131,47.5328126 19.6706068,43.2831518 19.6706068,38.0419035 L19.6706068,0.0782670982" id="Path" transform="translate(10.203074, 23.805540) scale(-1, 1) rotate(-180.000000) translate(-10.203074, -23.805540) "></path>
                <path d="M19.6706068,38.0419035 C19.6706068,43.2831518 23.9098004,47.5328126 29.1381393,47.5328126 C34.3664781,47.5328126 38.6056717,43.2831518 38.6056717,38.0419035 L38.6056717,0.0782670982" id="Path" transform="translate(29.138139, 23.805540) scale(-1, 1) rotate(-180.000000) translate(-29.138139, -23.805540) "></path>
                <path d="M38.6056717,47.5658973 C38.6056717,52.7888749 42.7799825,57.0237216 47.9282991,57.0237216 C53.0766157,57.0237216 57.2509265,52.7888749 57.2509265,47.5658973 L57.2509265,9.73459984 C57.2509265,4.51162221 62.1774828,0.0782670982 67.3257994,0.0782670982 L80.6835938,0.0782670982" id="Path" transform="translate(59.644633, 28.550994) scale(-1, 1) rotate(-180.000000) translate(-59.644633, -28.550994) "></path>
                <path d="M57.5407367,9.56917619 L57.5407367,38.0419035 C57.5407367,43.2831518 61.7799303,47.5328126 67.0082691,47.5328126 C72.236608,47.5328126 76.4758016,43.2831518 76.4758016,38.0419035 C76.4758016,22.3181586 63.7582207,9.56917619 48.0732042,9.56917619" id="Path" transform="translate(62.274503, 28.550994) scale(-1, 1) rotate(-180.000000) translate(-62.274503, -28.550994) "></path>
            </g>
        </g>
    </g>
</svg>