<?xml version="1.0" encoding="UTF-8"?>
<svg width="120px" height="120px" viewBox="0 0 120 120" version="1.1" xmlns="http://www.w3.org/2000/svg" xmlns:xlink="http://www.w3.org/1999/xlink">
    <!-- Generator: Sketch 57.1 (83088) - https://sketch.com -->
    <title>Volans</title>
    <desc>Created with Sketch.</desc>
    <g id="Volans" stroke="none" stroke-width="1" fill="none" fill-rule="evenodd">
        <g id="Clipped" transform="translate(27.000000, 27.000000)" stroke="#FFFFFF" stroke-width="9">
            <g id="Group">
                <path d="M53.9375,0.913053202 L28.4140625,51.9599282 C27.1210938,54.5458658 25.2617188,57.0888345 23.0195312,59.3271158 C15.9726562,66.377897 6.9609375,68.7919595 2.890625,64.721647 C-1.1796875,60.6513345 1.2382812,51.6396158 8.2851562,44.5927408 C10.5234375,42.3505532 13.0664062,40.4911782 15.6523438,39.1982095 L66.6992188,13.674772" id="Path" transform="translate(33.806562, 33.806136) scale(-1, 1) rotate(-180.000000) translate(-33.806562, -33.806136) "></path>
                <path d="M18.84375,7.26138473 C4.7460938,21.3551347 3.3203125,42.7848222 15.6523438,55.1168534 C27.984375,67.4488847 49.4140625,66.0231034 63.5078125,51.9254472" id="Path" transform="translate(35.384599, 35.384599) scale(-1, 1) rotate(-180.000000) translate(-35.384599, -35.384599) "></path>
            </g>
        </g>
    </g>
</svg>